<?xml version="1.0" standalone="no"?>
<!DOCTYPE svg PUBLIC "-//W3C//DTD SVG 20010904//EN"
 "http://www.w3.org/TR/2001/REC-SVG-20010904/DTD/svg10.dtd">
<svg version="1.0" xmlns="http://www.w3.org/2000/svg"
 width="500.000000pt" height="500.000000pt" viewBox="0 0 500.000000 500.000000"
 preserveAspectRatio="xMidYMid meet">
<metadata>
Created by potrace 1.14, written by Peter Selinger 2001-2017
</metadata>
<g transform="translate(0.000000,500.000000) scale(0.100000,-0.100000)"
fill="#000000" stroke="none">
<path d="M2570 4989 c-182 -36 -350 -165 -428 -329 -52 -108 -63 -173 -63
-365 l0 -155 -113 0 c-167 0 -200 -18 -211 -117 -5 -40 -52 -515 -71 -703 -3
-30 -7 -68 -9 -85 -2 -16 -7 -67 -11 -111 -3 -45 -9 -87 -13 -93 -6 -10 -96
-16 -187 -12 l-31 1 -16 93 c-10 50 -19 103 -22 117 -2 14 -27 145 -54 292
-51 274 -57 294 -113 344 -46 42 -74 44 -492 44 -367 0 -404 -2 -441 -19 -77
-35 -121 -114 -110 -201 10 -77 56 -133 130 -157 17 -5 162 -9 328 -9 165 1
301 -2 303 -6 5 -7 20 -87 94 -488 28 -153 71 -391 76 -420 9 -46 74 -405 79
-430 3 -14 11 -61 19 -105 14 -76 42 -230 170 -922 31 -166 61 -314 66 -328
17 -43 77 -93 126 -103 25 -5 97 -9 160 -8 114 2 135 -3 116 -27 -42 -54 -69
-216 -51 -312 23 -125 121 -256 236 -318 289 -155 652 50 668 377 4 81 -11
159 -41 220 -14 27 -22 51 -19 54 7 8 523 9 535 2 6 -4 0 -27 -14 -57 -46 -94
-55 -231 -22 -338 46 -151 203 -280 371 -306 256 -40 506 166 519 427 4 74 -9
143 -40 212 -13 30 -22 57 -19 60 2 3 85 6 182 7 169 2 180 3 214 25 114 75
126 220 26 311 -17 16 -44 31 -59 35 -16 3 -31 11 -34 18 -4 11 77 398 233
1106 42 190 78 354 80 365 3 11 21 29 41 40 39 21 82 85 82 123 0 18 6 22 30
22 28 0 50 22 50 49 0 18 -31 41 -54 41 -18 0 -25 7 -30 31 -13 69 -64 121
-128 133 -13 3 -58 5 -100 5 l-78 1 0 120 0 120 33 14 c17 7 43 26 57 40 24
27 25 32 28 196 4 202 -3 226 -71 259 -43 21 -56 22 -348 21 -167 0 -350 0
-405 0 l-102 0 -7 83 c-14 170 -23 211 -51 238 -23 22 -36 24 -157 29 l-131 5
-1 165 c-2 192 -11 243 -68 360 -114 230 -390 369 -637 319z m195 -94 c104
-14 247 -99 308 -182 98 -135 116 -225 108 -545 l-1 -28 -505 0 -506 0 4 178
c4 149 8 187 26 241 60 175 206 301 388 335 66 12 94 12 178 1z"/>
</g>
</svg>
